<?xml version="1.0" encoding="UTF-8" standalone="no"?>
<svg
   xmlns:dc="http://purl.org/dc/elements/1.1/"
   xmlns:cc="http://creativecommons.org/ns#"
   xmlns:rdf="http://www.w3.org/1999/02/22-rdf-syntax-ns#"
   xmlns:svg="http://www.w3.org/2000/svg"
   xmlns="http://www.w3.org/2000/svg"
   xmlns:xlink="http://www.w3.org/1999/xlink"
   xmlns:sodipodi="http://sodipodi.sourceforge.net/DTD/sodipodi-0.dtd"
   xmlns:inkscape="http://www.inkscape.org/namespaces/inkscape"
   width="210mm"
   height="297mm"
   viewBox="0 0 210 297"
   version="1.1"
   id="svg5573"
   inkscape:version="1.0.2 (1.0.2+r75+1)"
   sodipodi:docname="startprograming.svg">
  <defs
     id="defs5567">
    <linearGradient
       inkscape:collect="always"
       id="linearGradient939">
      <stop
         style="stop-color:#ff5500;stop-opacity:1"
         offset="0"
         id="stop935" />
      <stop
         style="stop-color:#ffffff;stop-opacity:0;"
         offset="1"
         id="stop937" />
    </linearGradient>
    <linearGradient
       inkscape:collect="always"
       id="linearGradient6481">
      <stop
         style="stop-color:#333333;stop-opacity:1;"
         offset="0"
         id="stop6477" />
      <stop
         style="stop-color:#333333;stop-opacity:0;"
         offset="1"
         id="stop6479" />
    </linearGradient>
    <linearGradient
       inkscape:collect="always"
       id="linearGradient6473">
      <stop
         style="stop-color:#333333;stop-opacity:1;"
         offset="0"
         id="stop6469" />
      <stop
         style="stop-color:#333333;stop-opacity:0;"
         offset="1"
         id="stop6471" />
    </linearGradient>
    <linearGradient
       inkscape:collect="always"
       id="linearGradient6465">
      <stop
         style="stop-color:#333333;stop-opacity:1;"
         offset="0"
         id="stop6461" />
      <stop
         style="stop-color:#333333;stop-opacity:0;"
         offset="1"
         id="stop6463" />
    </linearGradient>
    <linearGradient
       inkscape:collect="always"
       id="linearGradient6457">
      <stop
         style="stop-color:#333333;stop-opacity:1;"
         offset="0"
         id="stop6453" />
      <stop
         style="stop-color:#333333;stop-opacity:0;"
         offset="1"
         id="stop6455" />
    </linearGradient>
    <linearGradient
       inkscape:collect="always"
       id="linearGradient6341">
      <stop
         style="stop-color:#333333;stop-opacity:1;"
         offset="0"
         id="stop6337" />
      <stop
         style="stop-color:#333333;stop-opacity:0;"
         offset="1"
         id="stop6339" />
    </linearGradient>
    <linearGradient
       inkscape:collect="always"
       id="linearGradient6333">
      <stop
         style="stop-color:#333333;stop-opacity:1;"
         offset="0"
         id="stop6329" />
      <stop
         style="stop-color:#333333;stop-opacity:0;"
         offset="1"
         id="stop6331" />
    </linearGradient>
    <linearGradient
       inkscape:collect="always"
       id="linearGradient6325">
      <stop
         style="stop-color:#333333;stop-opacity:1;"
         offset="0"
         id="stop6321" />
      <stop
         style="stop-color:#333333;stop-opacity:0;"
         offset="1"
         id="stop6323" />
    </linearGradient>
    <linearGradient
       inkscape:collect="always"
       id="linearGradient6317">
      <stop
         style="stop-color:#333333;stop-opacity:1;"
         offset="0"
         id="stop6313" />
      <stop
         style="stop-color:#333333;stop-opacity:0;"
         offset="1"
         id="stop6315" />
    </linearGradient>
    <style
       id="style6268">.cls-1{fill:#71a73d;}.cls-2{fill:#c8d682;}</style>
    <linearGradient
       inkscape:collect="always"
       xlink:href="#linearGradient6317"
       id="linearGradient6319"
       x1="-0.49354729"
       y1="27.419732"
       x2="21.011116"
       y2="27.419732"
       gradientUnits="userSpaceOnUse" />
    <linearGradient
       inkscape:collect="always"
       xlink:href="#linearGradient6325"
       id="linearGradient6327"
       x1="19.351414"
       y1="36.541862"
       x2="48.510683"
       y2="36.541862"
       gradientUnits="userSpaceOnUse" />
    <linearGradient
       inkscape:collect="always"
       xlink:href="#linearGradient6333"
       id="linearGradient6335"
       x1="18.788578"
       y1="15.833815"
       x2="34.387094"
       y2="15.833815"
       gradientUnits="userSpaceOnUse" />
    <linearGradient
       inkscape:collect="always"
       xlink:href="#linearGradient6341"
       id="linearGradient6343"
       x1="8.5"
       y1="54.496418"
       x2="30.09"
       y2="54.496418"
       gradientUnits="userSpaceOnUse" />
    <linearGradient
       inkscape:collect="always"
       xlink:href="#linearGradient6457"
       id="linearGradient6459"
       x1="-0.49354729"
       y1="27.419732"
       x2="21.011116"
       y2="27.419732"
       gradientUnits="userSpaceOnUse" />
    <linearGradient
       inkscape:collect="always"
       xlink:href="#linearGradient6465"
       id="linearGradient6467"
       x1="18.788578"
       y1="15.833815"
       x2="34.387094"
       y2="15.833815"
       gradientUnits="userSpaceOnUse" />
    <linearGradient
       inkscape:collect="always"
       xlink:href="#linearGradient6473"
       id="linearGradient6475"
       x1="19.351414"
       y1="36.541862"
       x2="48.510683"
       y2="36.541862"
       gradientUnits="userSpaceOnUse" />
    <linearGradient
       inkscape:collect="always"
       xlink:href="#linearGradient6481"
       id="linearGradient6483"
       x1="75.612953"
       y1="347.21628"
       x2="187.1723"
       y2="25.724861"
       gradientUnits="userSpaceOnUse" />
    <linearGradient
       inkscape:collect="always"
       xlink:href="#linearGradient939"
       id="linearGradient941"
       x1="106.12986"
       y1="133.14789"
       x2="201.7943"
       y2="62.650089"
       gradientUnits="userSpaceOnUse" />
    <filter
       inkscape:collect="always"
       style="color-interpolation-filters:sRGB"
       id="filter1095"
       x="-0.0083623653"
       width="1.0167247"
       y="-0.0071573679"
       height="1.0143147">
      <feGaussianBlur
         inkscape:collect="always"
         stdDeviation="0.64758011"
         id="feGaussianBlur1097" />
    </filter>
  </defs>
  <sodipodi:namedview
     id="base"
     pagecolor="#ffffff"
     bordercolor="#666666"
     borderopacity="1.0"
     inkscape:pageopacity="0.0"
     inkscape:pageshadow="2"
     inkscape:zoom="0.40454056"
     inkscape:cx="365.05149"
     inkscape:cy="506.45081"
     inkscape:document-units="mm"
     inkscape:current-layer="g6311"
     inkscape:document-rotation="0"
     showgrid="false"
     showguides="true"
     inkscape:guide-bbox="true"
     inkscape:window-width="1024"
     inkscape:window-height="572"
     inkscape:window-x="0"
     inkscape:window-y="1"
     inkscape:window-maximized="1"
     inkscape:lockguides="false">
    <sodipodi:guide
       position="181.64499,302.21969"
       orientation="0,-1"
       id="guide6485"
       inkscape:locked="false" />
    <sodipodi:guide
       position="95.520607,163.85211"
       orientation="0,-1"
       id="guide1135" />
    <sodipodi:guide
       position="106.12986,281.85617"
       orientation="1,0"
       id="guide1137" />
  </sodipodi:namedview>
  <metadata
     id="metadata5570">
    <rdf:RDF>
      <cc:Work
         rdf:about="">
        <dc:format>image/svg+xml</dc:format>
        <dc:type
           rdf:resource="http://purl.org/dc/dcmitype/StillImage" />
        <dc:title />
      </cc:Work>
    </rdf:RDF>
  </metadata>
  <g
     inkscape:groupmode="layer"
     id="layer6"
     inkscape:label="footer"
     style="display:inline;opacity:1"
     sodipodi:insensitive="true">
    <path
       style="fill:#ff5500;fill-opacity:1;stroke:url(#linearGradient6483);stroke-width:4.27901"
       d="m 106.12986,15.143834 a 11.069121,11.112393 0 0 0 -5.79368,1.493238 L 7.632442,70.366251 a 11.069121,11.112393 0 0 0 -5.5346513,9.61939 V 187.4509 a 11.069121,11.112393 0 0 0 5.5322007,9.61921 l 92.7125686,53.72838 a 11.069121,11.112393 0 0 0 11.06391,0 l 92.69522,-53.73686 a 11.069121,11.112393 0 0 0 5.54317,-9.6125 V 79.983869 a 11.069121,11.112393 0 0 0 -5.54317,-9.615845 L 111.40647,16.639633 a 11.069121,11.112393 0 0 0 -5.27071,-1.493239 z"
       id="path52835" />
  </g>
  <g
     inkscape:groupmode="layer"
     id="g933"
     inkscape:label="footer copia"
     style="display:inline;opacity:1">
    <path
       style="fill:#333333;fill-opacity:1;stroke:url(#linearGradient941);stroke-width:4.27901;stroke-opacity:1"
       d="m 106.12986,15.143834 a 11.069121,11.112393 0 0 0 -5.79368,1.493238 L 7.632442,70.366251 a 11.069121,11.112393 0 0 0 -5.5346513,9.61939 V 187.4509 a 11.069121,11.112393 0 0 0 5.5322007,9.61921 l 92.7125686,53.72838 a 11.069121,11.112393 0 0 0 11.06391,0 l 92.69522,-53.73686 a 11.069121,11.112393 0 0 0 5.54317,-9.6125 V 79.983869 a 11.069121,11.112393 0 0 0 -5.54317,-9.615845 L 111.40647,16.639633 a 11.069121,11.112393 0 0 0 -5.27071,-1.493239 z"
       id="path931" />
  </g>
  <g
     inkscape:label="hoja"
     inkscape:groupmode="layer"
     id="layer1"
     style="display:inline;opacity:1;filter:url(#filter1095)">
    <g
       id="Capa_1-2"
       data-name="Capa 1"
       transform="matrix(3.8906218,0,0,3.7024004,17.766746,13.985974)"
       style="fill:#ffffff">
      <path
         class="cls-1"
         d="m 20.16,40.54 c 1.18,-4.62 5.19,-14.79 17.55,-14.76 l 10.06,0.55 a 57.49,57.49 0 0 1 -4,7.69 20.56,20.56 0 0 1 -12.27,7.76 c -3.13,0.53 -6,-0.73 -11.38,4.89 v 0 a 4.42,4.42 0 0 1 0.31,-2.1 10.16,10.16 0 0 1 0.69,-1.42 1.39,1.39 0 0 1 0.83,-0.63 l 3,-0.86 a 0.17,0.17 0 0 1 0.17,0 0.29,0.29 0 0 0 0.2,0.09 0.3,0.3 0 0 0 0.29,-0.3 0.29,0.29 0 0 0 -0.29,-0.29 0.27,0.27 0 0 0 -0.25,0.16 0.17,0.17 0 0 1 -0.12,0.08 l -2.56,0.33 a 0.15,0.15 0 0 1 -0.14,-0.25 20.15,20.15 0 0 1 2,-2.17 0.92,0.92 0 0 1 0.65,-0.26 h 5.74 a 0.49,0.49 0 0 1 0.3,0.12 0.45,0.45 0 0 0 0.32,0.12 0.51,0.51 0 0 0 0.5,-0.62 0.51,0.51 0 0 0 -0.95,-0.13 0.3,0.3 0 0 1 -0.32,0.16 l -3.8,-0.5 a 0.42,0.42 0 0 1 -0.2,-0.75 l 0.85,-0.58 a 0.7,0.7 0 0 1 0.35,-0.12 L 33,36.31 a 0.3,0.3 0 0 1 0.27,0.14 0.61,0.61 0 0 0 0.47,0.24 0.58,0.58 0 0 0 0.56,-0.74 0.56,0.56 0 0 0 -0.4,-0.4 0.58,0.58 0 0 0 -0.54,0.12 0.34,0.34 0 0 1 -0.26,0.08 l -1.74,-0.21 a 0.35,0.35 0 0 1 -0.08,-0.67 c 0.26,-0.09 0.71,-0.24 1.15,-0.37 a 5.63,5.63 0 0 1 1.91,-0.27 l 3.06,0.09 a 0.58,0.58 0 0 1 0.28,0.09 0.37,0.37 0 0 0 0.21,0.06 0.43,0.43 0 0 0 0,-0.85 0.42,0.42 0 0 0 -0.34,0.18 0.31,0.31 0 0 1 -0.31,0.13 l -1.61,-0.27 a 0.08,0.08 0 0 1 0,-0.15 13.72,13.72 0 0 0 3.34,-1.8 0.22,0.22 0 0 1 0.22,0 1,1 0 0 0 0.71,0.08 1,1 0 0 0 0.7,-0.71 0.94,0.94 0 0 0 -0.18,-0.85 v 0 a 1,1 0 0 0 -0.95,-0.36 1,1 0 0 0 -0.78,1.23 0.13,0.13 0 0 1 -0.08,0.15 c -0.69,0.29 -1.64,0.65 -2.93,1.07 a 0.11,0.11 0 0 1 -0.13,-0.17 l 0.88,-1.38 a 0.45,0.45 0 0 1 0.26,-0.19 0.51,0.51 0 0 0 0.34,-0.48 0.5,0.5 0 0 0 -0.5,-0.5 0.48,0.48 0 0 0 -0.48,0.62 0.33,0.33 0 0 1 -0.09,0.3 l -2.42,2.43 a 0.21,0.21 0 0 1 -0.1,0.06 l -1.38,0.4 -0.62,0.15 a 0.4,0.4 0 0 1 -0.48,-0.52 l 0.94,-2.8 a 0.19,0.19 0 0 1 0.13,-0.13 0.5,0.5 0 0 0 0.35,-0.47 0.49,0.49 0 0 0 -0.49,-0.48 0.48,0.48 0 0 0 -0.48,0.48 0.47,0.47 0 0 0 0.11,0.31 0.23,0.23 0 0 1 0,0.26 L 29.2,34 a 1.75,1.75 0 0 1 -0.69,0.66 13.55,13.55 0 0 0 -1.34,0.8 0.45,0.45 0 0 1 -0.7,-0.31 l -0.33,-2.23 a 0.14,0.14 0 0 1 0.06,-0.14 0.53,0.53 0 0 0 0.16,-0.61 0.49,0.49 0 0 0 -0.29,-0.29 0.53,0.53 0 0 0 -0.74,0.49 0.53,0.53 0 0 0 0.25,0.45 0.11,0.11 0 0 1 0.06,0.1 l -0.39,3.22 a 2.66,2.66 0 0 1 -0.74,1.54 18.91,18.91 0 0 0 -1.51,1.64 0.06,0.06 0 0 1 -0.11,0 l -0.16,-2.08 a 0.1,0.1 0 0 1 0.06,-0.1 0.27,0.27 0 1 0 -0.39,-0.24 0.22,0.22 0 0 0 0.07,0.17 0.17,0.17 0 0 1 0,0.14 L 22,40.55 a 1.37,1.37 0 0 1 -0.15,0.38 c -1.14,1.68 -1.81,2.77 -2,3.06 L 20,42 a 6.6,6.6 0 0 1 0.16,-1.46 z"
         id="path6274"
         style="fill:#ffffff;stroke:url(#linearGradient6327);stroke-width:1;stroke-linejoin:bevel;stroke-miterlimit:4;stroke-dasharray:0.1, 0.10000000000000001;stroke-dashoffset:0" />
      <path
         class="cls-1"
         d="m 13.36,21.67 a 0.78,0.78 0 0 1 0.28,-0.32 0.54,0.54 0 0 0 0.19,-0.25 0.59,0.59 0 0 0 -0.31,-0.79 0.62,0.62 0 0 0 -0.8,0.31 0.59,0.59 0 0 0 0,0.55 0.46,0.46 0 0 1 0,0.49 l -1.27,2 a 0.11067972,0.11067972 0 0 1 -0.21,-0.07 20.22,20.22 0 0 0 -0.46,-5.42 0.32,0.32 0 0 1 0.09,-0.32 1.42,1.42 0 0 0 0.5,-0.88 1.42,1.42 0 0 0 -1.76,-1.59 v 0 a 1.41,1.41 0 0 0 -1,1.05 1.47,1.47 0 0 0 0.45,1.38 1.32,1.32 0 0 0 0.74,0.34 0.19,0.19 0 0 1 0.15,0.19 c 0,1.08 -0.08,2.53 -0.26,4.47 A 0.17,0.17 0 0 1 9.38,22.89 L 8.06,20.92 a 0.64,0.64 0 0 1 -0.1,-0.45 0.73,0.73 0 0 0 -0.43,-0.73 0.72,0.72 0 0 0 -1,0.38 0.73,0.73 0 0 0 0.37,0.95 h 0.17 a 0.44,0.44 0 0 1 0.34,0.29 L 9.29,26 a 0.44,0.44 0 0 1 0,0.16 l -0.27,2 c 0,0.31 -0.1,0.61 -0.14,0.91 a 0.59,0.59 0 0 1 -1,0.34 l -3.1,-2.82 a 0.31,0.31 0 0 1 -0.1,-0.25 0.7,0.7 0 1 0 -0.5,0.59 0.31,0.31 0 0 1 0.36,0.11 l 3.68,5.19 A 2.6,2.6 0 0 1 8.7,33.51 20.27,20.27 0 0 0 9,35.74 0.64,0.64 0 0 1 8.2,36.48 L 5,35.64 a 0.21,0.21 0 0 1 -0.14,-0.16 0.77,0.77 0 0 0 -0.72,-0.55 0.75,0.75 0 0 0 -0.55,0.21 0.78,0.78 0 0 0 0.23,1.26 0.75,0.75 0 0 0 0.74,-0.08 0.17,0.17 0 0 1 0.17,0 l 4,2.34 a 3.73,3.73 0 0 1 1.6,1.86 29.46,29.46 0 0 0 1.38,2.93 0.09,0.09 0 0 1 -0.11,0.12 l -2.84,-1 a 0.13,0.13 0 0 1 -0.1,-0.12 0.39,0.39 0 1 0 -0.54,0.37 0.36,0.36 0 0 0 0.27,0 0.24,0.24 0 0 1 0.2,0 l 4.15,2.6 a 1.15,1.15 0 0 1 0.41,0.41 c 1.58,2.46 2.77,4.19 2.91,4.35 v 0 A 10.52,10.52 0 0 1 12.58,48.53 C 7.69,45 -5.22,33.58 2.3,16.34 L 8.77,3.4 a 83.68,83.68 0 0 1 7.83,9.7 c 0,0 5.88,9.42 3.22,20.61 -1.09,4.42 -4.41,7.52 -0.06,17.78 v 0 a 6.37,6.37 0 0 1 -2.59,-1.61 14.59,14.59 0 0 1 -1.9,-2.33 0.17,0.17 0 0 1 0,-0.14 l 0.69,-5.18 a 0.23,0.23 0 0 1 0.15,-0.19 0.45,0.45 0 0 0 0.23,-0.22 0.42,0.42 0 0 0 -0.22,-0.55 0.41,0.41 0 0 0 -0.55,0.22 0.4,0.4 0 0 0 0.06,0.42 0.2,0.2 0 0 1 0,0.21 l -1,3.55 a 0.23,0.23 0 0 1 -0.42,0 28.57,28.57 0 0 1 -1.71,-3.87 1.36,1.36 0 0 1 0,-1 l 3.28,-7.56 a 0.63,0.63 0 0 1 0.33,-0.33 0.75,0.75 0 0 0 0.34,-0.36 0.74,0.74 0 0 0 -0.53,-1 0.73,0.73 0 0 0 -0.72,1.17 0.47,0.47 0 0 1 0,0.53 L 12.41,38 a 0.6,0.6 0 0 1 -1.09,-0.17 c -0.1,-0.47 -0.2,-1 -0.29,-1.45 a 1.18,1.18 0 0 1 0,-0.53 l 2.4,-7.25 A 0.43,0.43 0 0 1 13.77,28.32 0.85,0.85 0 0 0 14.35,27.84 0.84,0.84 0 0 0 13,27 a 0.86,0.86 0 0 0 -0.15,0.79 0.48,0.48 0 0 1 0,0.39 l -1.27,2.18 a 0.5,0.5 0 0 1 -0.93,-0.28 c 0,-0.39 0.09,-1.07 0.16,-1.73 a 8.56,8.56 0 0 1 0.74,-2.67 z"
         id="path6276"
         style="opacity:1;fill:#ffffff;stroke:url(#linearGradient6319);stroke-width:1;stroke-linejoin:bevel;stroke-miterlimit:4;stroke-dasharray:0.1, 0.10000000000000001;stroke-dashoffset:0" />
      <path
         class="cls-1"
         d="m 22,31.44 a 9.82,9.82 0 0 0 1.32,-1.69 0.12,0.12 0 0 0 0,-0.1 L 22.75,26.27 A 0.15,0.15 0 0 0 22.64,26.15 0.22,0.22 0 0 1 22.5,26 0.29,0.29 0 0 1 22.65,25.61 0.29,0.29 0 0 1 23.04,25.72 0.24,0.24 0 0 1 23,26 a 0.18,0.18 0 0 0 0,0.14 l 0.78,2.29 c 0,0.12 0.23,0.12 0.3,0 a 21,21 0 0 0 1.16,-2.69 0.86,0.86 0 0 0 0,-0.67 L 22.8,20.31 a 0.38,0.38 0 0 0 -0.24,-0.19 0.42,0.42 0 0 1 -0.25,-0.22 0.53,0.53 0 0 1 0.36,-0.71 0.51,0.51 0 0 1 0.53,0.14 0.47,0.47 0 0 1 0,0.59 0.29,0.29 0 0 0 0,0.34 l 2.1,2.92 A 0.44,0.44 0 0 0 26,23 c 0.07,-0.32 0.13,-0.65 0.19,-1 a 0.8,0.8 0 0 0 0,-0.34 l -1.81,-4.62 a 0.29,0.29 0 0 0 -0.25,-0.17 0.52,0.52 0 0 1 -0.42,-0.27 0.6,0.6 0 0 1 0.45,-0.82 0.55,0.55 0 0 1 0.54,0.14 0.51,0.51 0 0 1 0.12,0.51 0.27,0.27 0 0 0 0,0.25 l 0.94,1.35 a 0.38,0.38 0 0 0 0.66,-0.25 c 0,-0.26 -0.08,-0.71 -0.14,-1.14 A 4.93,4.93 0 0 0 25.69,15 l -1.38,-2.5 a 0.64,0.64 0 0 0 -0.21,-0.19 0.34,0.34 0 0 1 -0.14,-0.15 0.41,0.41 0 0 1 0.21,-0.55 0.42,0.42 0 0 1 0.57,0.15 0.36,0.36 0 0 1 0,0.36 0.28,0.28 0 0 0 0,0.33 l 0.93,1.21 A 0.09,0.09 0 0 0 25.82,13.6 12.63,12.63 0 0 1 26.07,9.96 0.18,0.18 0 0 0 26,9.72 0.83,0.83 0 0 1 25.63,9.17 1,1 0 0 1 26,8.25 1.11,1.11 0 0 1 26.86,8 v 0 a 0.87,0.87 0 0 1 0.74,0.62 1,1 0 0 1 -0.29,1 1.11,1.11 0 0 1 -0.52,0.28 0.14,0.14 0 0 0 -0.11,0.13 c 0,0.72 0.09,1.68 0.25,2.95 a 0.12,0.12 0 0 0 0.22,0 l 0.91,-1.39 a 0.5,0.5 0 0 0 0.06,-0.31 0.51,0.51 0 0 1 0.3,-0.51 0.47,0.47 0 1 1 0.43,0.83 h -0.12 a 0.34,0.34 0 0 0 -0.24,0.21 L 27.26,15 a 0.34,0.34 0 0 0 0,0.1 l 0.22,1.34 0.12,0.59 a 0.41,0.41 0 0 0 0.69,0.15 l 2.21,-2.12 a 0.23,0.23 0 0 0 0.07,-0.17 0.52,0.52 0 0 1 0.94,-0.34 0.5,0.5 0 0 1 -0.25,0.64 0.55,0.55 0 0 1 -0.33,0.05 0.23,0.23 0 0 0 -0.25,0.09 l -2.55,3.72 a 1.78,1.78 0 0 0 -0.32,0.89 14.64,14.64 0 0 1 -0.17,1.5 0.41,0.41 0 0 0 0.58,0.43 l 2.22,-0.79 a 0.17,0.17 0 0 0 0.1,-0.12 0.61,0.61 0 0 1 0.51,-0.42 0.53,0.53 0 0 1 0.39,0.1 0.51,0.51 0 0 1 -0.15,0.85 0.56,0.56 0 0 1 -0.52,0 0.13,0.13 0 0 0 -0.12,0 l -2.83,1.85 a 2.93,2.93 0 0 0 -1.11,1.36 20,20 0 0 1 -0.93,2 0.06,0.06 0 0 0 0.07,0.08 l 2,-0.86 a 0.11,0.11 0 0 0 0.07,-0.09 0.28,0.28 0 0 1 0.16,-0.25 0.25268558,0.25268558 0 1 1 0.23,0.45 0.28,0.28 0 0 1 -0.2,0 0.19,0.19 0 0 0 -0.14,0 l -2.91,2 a 1.17,1.17 0 0 0 -0.29,0.3 c -1.09,1.75 -1.91,3 -2,3.11 v 0 a 8.58,8.58 0 0 0 2.46,-1.36 C 28.69,27.49 37.71,19 32.1,8.09 L 27.3,0 a 63.29,63.29 0 0 0 -5.43,7 c 0,0 -4.05,6.69 -2,13.9 0.81,2.75 2.6,3.29 1.07,10.63 a 0.33,0.33 0 0 0 0.53,0.33 3.7,3.7 0 0 0 0.53,-0.42 z"
         id="path6278"
         style="fill:#ffffff;stroke:url(#linearGradient6335);stroke-width:1;stroke-linejoin:bevel;stroke-miterlimit:4;stroke-dasharray:0.1, 0.10000000000000001;stroke-dashoffset:0" />
      <path
         class="cls-2"
         d="m 29.59,52 c 0,3.67 -4.61,6.65 -10.3,6.65 C 13.6,58.65 9,55.71 9,52 c 0,-3.71 4.62,0 10.31,0 5.69,0 10.28,-3.64 10.28,0 z"
         id="path6280"
         style="fill:#ffffff;stroke:url(#linearGradient6343)" />
    </g>
  </g>
  <g
     inkscape:label="hoja principal"
     inkscape:groupmode="layer"
     id="g6311"
     style="display:inline;opacity:1">
    <g
       id="g6309"
       data-name="Capa 1"
       transform="matrix(3.9247175,0,0,3.3828317,15.416524,26.087801)"
       style="opacity:1">
      <path
         class="cls-1"
         d="m 20.16,40.54 c 1.18,-4.62 5.19,-14.79 17.55,-14.76 l 10.06,0.55 a 57.49,57.49 0 0 1 -4,7.69 20.56,20.56 0 0 1 -12.27,7.76 c -3.13,0.53 -6,-0.73 -11.38,4.89 v 0 a 4.42,4.42 0 0 1 0.31,-2.1 10.16,10.16 0 0 1 0.69,-1.42 1.39,1.39 0 0 1 0.83,-0.63 l 3,-0.86 a 0.17,0.17 0 0 1 0.17,0 0.29,0.29 0 0 0 0.2,0.09 0.3,0.3 0 0 0 0.29,-0.3 0.29,0.29 0 0 0 -0.29,-0.29 0.27,0.27 0 0 0 -0.25,0.16 0.17,0.17 0 0 1 -0.12,0.08 l -2.56,0.33 a 0.15,0.15 0 0 1 -0.14,-0.25 20.15,20.15 0 0 1 2,-2.17 0.92,0.92 0 0 1 0.65,-0.26 h 5.74 a 0.49,0.49 0 0 1 0.3,0.12 0.45,0.45 0 0 0 0.32,0.12 0.51,0.51 0 0 0 0.5,-0.62 0.51,0.51 0 0 0 -0.95,-0.13 0.3,0.3 0 0 1 -0.32,0.16 l -3.8,-0.5 a 0.42,0.42 0 0 1 -0.2,-0.75 l 0.85,-0.58 a 0.7,0.7 0 0 1 0.35,-0.12 L 33,36.31 a 0.3,0.3 0 0 1 0.27,0.14 0.61,0.61 0 0 0 0.47,0.24 0.58,0.58 0 0 0 0.56,-0.74 0.56,0.56 0 0 0 -0.4,-0.4 0.58,0.58 0 0 0 -0.54,0.12 0.34,0.34 0 0 1 -0.26,0.08 l -1.74,-0.21 a 0.35,0.35 0 0 1 -0.08,-0.67 c 0.26,-0.09 0.71,-0.24 1.15,-0.37 a 5.63,5.63 0 0 1 1.91,-0.27 l 3.06,0.09 a 0.58,0.58 0 0 1 0.28,0.09 0.37,0.37 0 0 0 0.21,0.06 0.43,0.43 0 0 0 0,-0.85 0.42,0.42 0 0 0 -0.34,0.18 0.31,0.31 0 0 1 -0.31,0.13 l -1.61,-0.27 a 0.08,0.08 0 0 1 0,-0.15 13.72,13.72 0 0 0 3.34,-1.8 0.22,0.22 0 0 1 0.22,0 1,1 0 0 0 0.71,0.08 1,1 0 0 0 0.7,-0.71 0.94,0.94 0 0 0 -0.18,-0.85 v 0 a 1,1 0 0 0 -0.95,-0.36 1,1 0 0 0 -0.78,1.23 0.13,0.13 0 0 1 -0.08,0.15 c -0.69,0.29 -1.64,0.65 -2.93,1.07 a 0.11,0.11 0 0 1 -0.13,-0.17 l 0.88,-1.38 a 0.45,0.45 0 0 1 0.26,-0.19 0.51,0.51 0 0 0 0.34,-0.48 0.5,0.5 0 0 0 -0.5,-0.5 0.48,0.48 0 0 0 -0.48,0.62 0.33,0.33 0 0 1 -0.09,0.3 l -2.42,2.43 a 0.21,0.21 0 0 1 -0.1,0.06 l -1.38,0.4 -0.62,0.15 a 0.4,0.4 0 0 1 -0.48,-0.52 l 0.94,-2.8 a 0.19,0.19 0 0 1 0.13,-0.13 0.5,0.5 0 0 0 0.35,-0.47 0.49,0.49 0 0 0 -0.49,-0.48 0.48,0.48 0 0 0 -0.48,0.48 0.47,0.47 0 0 0 0.11,0.31 0.23,0.23 0 0 1 0,0.26 L 29.2,34 a 1.75,1.75 0 0 1 -0.69,0.66 13.55,13.55 0 0 0 -1.34,0.8 0.45,0.45 0 0 1 -0.7,-0.31 l -0.33,-2.23 a 0.14,0.14 0 0 1 0.06,-0.14 0.53,0.53 0 0 0 0.16,-0.61 0.49,0.49 0 0 0 -0.29,-0.29 0.53,0.53 0 0 0 -0.74,0.49 0.53,0.53 0 0 0 0.25,0.45 0.11,0.11 0 0 1 0.06,0.1 l -0.39,3.22 a 2.66,2.66 0 0 1 -0.74,1.54 18.91,18.91 0 0 0 -1.51,1.64 0.06,0.06 0 0 1 -0.11,0 l -0.16,-2.08 a 0.1,0.1 0 0 1 0.06,-0.1 0.27,0.27 0 1 0 -0.39,-0.24 0.22,0.22 0 0 0 0.07,0.17 0.17,0.17 0 0 1 0,0.14 L 22,40.55 a 1.37,1.37 0 0 1 -0.15,0.38 c -1.14,1.68 -1.81,2.77 -2,3.06 L 20,42 a 6.6,6.6 0 0 1 0.16,-1.46 z"
         id="path6301"
         style="stroke:url(#linearGradient6475);stroke-width:0.51925;stroke-miterlimit:4;stroke-dasharray:none;stroke-dashoffset:0;fill:#ff5500;fill-opacity:1" />
      <path
         class="cls-1"
         d="m 13.36,21.67 a 0.78,0.78 0 0 1 0.28,-0.32 0.54,0.54 0 0 0 0.19,-0.25 0.59,0.59 0 0 0 -0.31,-0.79 0.62,0.62 0 0 0 -0.8,0.31 0.59,0.59 0 0 0 0,0.55 0.46,0.46 0 0 1 0,0.49 l -1.27,2 a 0.11067972,0.11067972 0 0 1 -0.21,-0.07 20.22,20.22 0 0 0 -0.46,-5.42 0.32,0.32 0 0 1 0.09,-0.32 1.42,1.42 0 0 0 0.5,-0.88 1.42,1.42 0 0 0 -1.76,-1.59 v 0 a 1.41,1.41 0 0 0 -1,1.05 1.47,1.47 0 0 0 0.45,1.38 1.32,1.32 0 0 0 0.74,0.34 0.19,0.19 0 0 1 0.15,0.19 c 0,1.08 -0.08,2.53 -0.26,4.47 A 0.17,0.17 0 0 1 9.38,22.89 L 8.06,20.92 a 0.64,0.64 0 0 1 -0.1,-0.45 0.73,0.73 0 0 0 -0.43,-0.73 0.72,0.72 0 0 0 -1,0.38 0.73,0.73 0 0 0 0.37,0.95 h 0.17 a 0.44,0.44 0 0 1 0.34,0.29 L 9.29,26 a 0.44,0.44 0 0 1 0,0.16 l -0.27,2 c 0,0.31 -0.1,0.61 -0.14,0.91 a 0.59,0.59 0 0 1 -1,0.34 l -3.1,-2.82 a 0.31,0.31 0 0 1 -0.1,-0.25 0.7,0.7 0 1 0 -0.5,0.59 0.31,0.31 0 0 1 0.36,0.11 l 3.68,5.19 A 2.6,2.6 0 0 1 8.7,33.51 20.27,20.27 0 0 0 9,35.74 0.64,0.64 0 0 1 8.2,36.48 L 5,35.64 a 0.21,0.21 0 0 1 -0.14,-0.16 0.77,0.77 0 0 0 -0.72,-0.55 0.75,0.75 0 0 0 -0.55,0.21 0.78,0.78 0 0 0 0.23,1.26 0.75,0.75 0 0 0 0.74,-0.08 0.17,0.17 0 0 1 0.17,0 l 4,2.34 a 3.73,3.73 0 0 1 1.6,1.86 29.46,29.46 0 0 0 1.38,2.93 0.09,0.09 0 0 1 -0.11,0.12 l -2.84,-1 a 0.13,0.13 0 0 1 -0.1,-0.12 0.39,0.39 0 1 0 -0.54,0.37 0.36,0.36 0 0 0 0.27,0 0.24,0.24 0 0 1 0.2,0 l 4.15,2.6 a 1.15,1.15 0 0 1 0.41,0.41 c 1.58,2.46 2.77,4.19 2.91,4.35 v 0 A 10.52,10.52 0 0 1 12.58,48.53 C 7.69,45 -5.22,33.58 2.3,16.34 L 8.77,3.4 a 83.68,83.68 0 0 1 7.83,9.7 c 0,0 5.88,9.42 3.22,20.61 -1.09,4.42 -4.41,7.52 -0.06,17.78 v 0 a 6.37,6.37 0 0 1 -2.59,-1.61 14.59,14.59 0 0 1 -1.9,-2.33 0.17,0.17 0 0 1 0,-0.14 l 0.69,-5.18 a 0.23,0.23 0 0 1 0.15,-0.19 0.45,0.45 0 0 0 0.23,-0.22 0.42,0.42 0 0 0 -0.22,-0.55 0.41,0.41 0 0 0 -0.55,0.22 0.4,0.4 0 0 0 0.06,0.42 0.2,0.2 0 0 1 0,0.21 l -1,3.55 a 0.23,0.23 0 0 1 -0.42,0 28.57,28.57 0 0 1 -1.71,-3.87 1.36,1.36 0 0 1 0,-1 l 3.28,-7.56 a 0.63,0.63 0 0 1 0.33,-0.33 0.75,0.75 0 0 0 0.34,-0.36 0.74,0.74 0 0 0 -0.53,-1 0.73,0.73 0 0 0 -0.72,1.17 0.47,0.47 0 0 1 0,0.53 L 12.41,38 a 0.6,0.6 0 0 1 -1.09,-0.17 c -0.1,-0.47 -0.2,-1 -0.29,-1.45 a 1.18,1.18 0 0 1 0,-0.53 l 2.4,-7.25 A 0.43,0.43 0 0 1 13.77,28.32 0.85,0.85 0 0 0 14.35,27.84 0.84,0.84 0 0 0 13,27 a 0.86,0.86 0 0 0 -0.15,0.79 0.48,0.48 0 0 1 0,0.39 l -1.27,2.18 a 0.5,0.5 0 0 1 -0.93,-0.28 c 0,-0.39 0.09,-1.07 0.16,-1.73 a 8.56,8.56 0 0 1 0.74,-2.67 z"
         id="path6303"
         style="stroke:url(#linearGradient6459);stroke-width:0.50964469;stroke-miterlimit:4;stroke-dasharray:none;stroke-dashoffset:0;fill:#ff5500;fill-opacity:1" />
      <path
         class="cls-1"
         d="m 22,31.44 a 9.82,9.82 0 0 0 1.32,-1.69 0.12,0.12 0 0 0 0,-0.1 L 22.75,26.27 A 0.15,0.15 0 0 0 22.64,26.15 0.22,0.22 0 0 1 22.5,26 0.29,0.29 0 0 1 22.65,25.61 0.29,0.29 0 0 1 23.04,25.72 0.24,0.24 0 0 1 23,26 a 0.18,0.18 0 0 0 0,0.14 l 0.78,2.29 c 0,0.12 0.23,0.12 0.3,0 a 21,21 0 0 0 1.16,-2.69 0.86,0.86 0 0 0 0,-0.67 L 22.8,20.31 a 0.38,0.38 0 0 0 -0.24,-0.19 0.42,0.42 0 0 1 -0.25,-0.22 0.53,0.53 0 0 1 0.36,-0.71 0.51,0.51 0 0 1 0.53,0.14 0.47,0.47 0 0 1 0,0.59 0.29,0.29 0 0 0 0,0.34 l 2.1,2.92 A 0.44,0.44 0 0 0 26,23 c 0.07,-0.32 0.13,-0.65 0.19,-1 a 0.8,0.8 0 0 0 0,-0.34 l -1.81,-4.62 a 0.29,0.29 0 0 0 -0.25,-0.17 0.52,0.52 0 0 1 -0.42,-0.27 0.6,0.6 0 0 1 0.45,-0.82 0.55,0.55 0 0 1 0.54,0.14 0.51,0.51 0 0 1 0.12,0.51 0.27,0.27 0 0 0 0,0.25 l 0.94,1.35 a 0.38,0.38 0 0 0 0.66,-0.25 c 0,-0.26 -0.08,-0.71 -0.14,-1.14 A 4.93,4.93 0 0 0 25.69,15 l -1.38,-2.5 a 0.64,0.64 0 0 0 -0.21,-0.19 0.34,0.34 0 0 1 -0.14,-0.15 0.41,0.41 0 0 1 0.21,-0.55 0.42,0.42 0 0 1 0.57,0.15 0.36,0.36 0 0 1 0,0.36 0.28,0.28 0 0 0 0,0.33 l 0.93,1.21 A 0.09,0.09 0 0 0 25.82,13.6 12.63,12.63 0 0 1 26.07,9.96 0.18,0.18 0 0 0 26,9.72 0.83,0.83 0 0 1 25.63,9.17 1,1 0 0 1 26,8.25 1.11,1.11 0 0 1 26.86,8 v 0 a 0.87,0.87 0 0 1 0.74,0.62 1,1 0 0 1 -0.29,1 1.11,1.11 0 0 1 -0.52,0.28 0.14,0.14 0 0 0 -0.11,0.13 c 0,0.72 0.09,1.68 0.25,2.95 a 0.12,0.12 0 0 0 0.22,0 l 0.91,-1.39 a 0.5,0.5 0 0 0 0.06,-0.31 0.51,0.51 0 0 1 0.3,-0.51 0.47,0.47 0 1 1 0.43,0.83 h -0.12 a 0.34,0.34 0 0 0 -0.24,0.21 L 27.26,15 a 0.34,0.34 0 0 0 0,0.1 l 0.22,1.34 0.12,0.59 a 0.41,0.41 0 0 0 0.69,0.15 l 2.21,-2.12 a 0.23,0.23 0 0 0 0.07,-0.17 0.52,0.52 0 0 1 0.94,-0.34 0.5,0.5 0 0 1 -0.25,0.64 0.55,0.55 0 0 1 -0.33,0.05 0.23,0.23 0 0 0 -0.25,0.09 l -2.55,3.72 a 1.78,1.78 0 0 0 -0.32,0.89 14.64,14.64 0 0 1 -0.17,1.5 0.41,0.41 0 0 0 0.58,0.43 l 2.22,-0.79 a 0.17,0.17 0 0 0 0.1,-0.12 0.61,0.61 0 0 1 0.51,-0.42 0.53,0.53 0 0 1 0.39,0.1 0.51,0.51 0 0 1 -0.15,0.85 0.56,0.56 0 0 1 -0.52,0 0.13,0.13 0 0 0 -0.12,0 l -2.83,1.85 a 2.93,2.93 0 0 0 -1.11,1.36 20,20 0 0 1 -0.93,2 0.06,0.06 0 0 0 0.07,0.08 l 2,-0.86 a 0.11,0.11 0 0 0 0.07,-0.09 0.28,0.28 0 0 1 0.16,-0.25 0.25268558,0.25268558 0 1 1 0.23,0.45 0.28,0.28 0 0 1 -0.2,0 0.19,0.19 0 0 0 -0.14,0 l -2.91,2 a 1.17,1.17 0 0 0 -0.29,0.3 c -1.09,1.75 -1.91,3 -2,3.11 v 0 a 8.58,8.58 0 0 0 2.46,-1.36 C 28.69,27.49 37.71,19 32.1,8.09 L 27.3,0 a 63.29,63.29 0 0 0 -5.43,7 c 0,0 -4.05,6.69 -2,13.9 0.81,2.75 2.6,3.29 1.07,10.63 a 0.33,0.33 0 0 0 0.53,0.33 3.7,3.7 0 0 0 0.53,-0.42 z"
         id="path6305"
         style="stroke:url(#linearGradient6467);stroke-width:0.46436124;stroke-miterlimit:4;stroke-dasharray:none;stroke-dashoffset:0;fill:#ff5500;fill-opacity:1" />
      <path
         class="cls-2"
         d="m 29.59,52 c 0,3.67 -4.61,6.65 -10.3,6.65 C 13.6,58.65 9,55.71 9,52 c 0,-3.71 4.62,0 10.31,0 5.69,0 10.28,-3.64 10.28,0 z"
         id="path6307"
         style="fill:#fbff0b;fill-opacity:1;stroke:#080808;stroke-opacity:0;stroke-width:1.2745234;stroke-miterlimit:4;stroke-dasharray:none" />
    </g>
  </g>
</svg>
